# xmcd
#
# Track frame offsets:
#	150
#	16218
#	38072
#	52032
#	71684
#	86262
#	99803
#	117127
#	130517
#	144808
#	164587
#	182248
#	199876
#	213785
#	227804
#	242583
#	263283
#	280886
#
# Disc length: 3943 seconds
#
# Revision: 2
# Processed by: cddbd v1.5.2PL0 Copyright (c) Steve Scherf et al.
# Submitted via: audiograbber 1.83.01
#
DISCID=e80f6512
DTITLE=Various Artist - MRE60
DYEAR=2007
DGENRE=Karaoke
TTITLE0=Shania Twain - You're Still The One
TTITLE1=Shania Twain - From This Moment On
TTITLE2=Dolly Parton - 9 To 5
TTITLE3=Shania Twain - Any Man Of Mine
TTITLE4=Billie Jo Spears - '57 Chevrolet
TTITLE5=Pam Tillis - When You Walk In The Room
TTITLE6=Bonnie Tyler - It's A Heartache
TTITLE7=Billie Jo Spears - What I've Got In Mind
TTITLE8=Shania Twain - Come On Over
TTITLE9=Shania Twain - I'm Gonna Getcha Good
TTITLE10=Shania Twain - Don't Be Stupid (You Know I Love You)
TTITLE11=Leann Rimes - Can't Fight The Moonlight
TTITLE12=Nancy Sinatra - These Boots Are Made For Walkin'
TTITLE13=Leann Rimes - Blue
TTITLE14=Carly Simon - Nobody Does It Better
TTITLE15=Carly Simon - You're So Vain
TTITLE16=Carly Simon - Pearl's A Singer
TTITLE17=Dolly Parton - I Will Always Love You
EXTD=
EXTT0=
EXTT1=
EXTT2=
EXTT3=
EXTT4=
EXTT5=
EXTT6=
EXTT7=
EXTT8=
EXTT9=
EXTT10=
EXTT11=
EXTT12=
EXTT13=
EXTT14=
EXTT15=
EXTT16=
EXTT17=
PLAYORDER=
